<svg id="boy_icon" xmlns="http://www.w3.org/2000/svg" viewBox="0 0 1095.13 1372.82"><path id="coin" d="M502,917.3V960c0,35.3,86,64,192,64s192-28.7,192-64V917.3C844.7,946.4,769.2,960,694,960S543.3,946.4,502,917.3ZM822,640c106,0,192-28.7,192-64s-86-64-192-64-192,28.7-192,64S716,640,822,640ZM502,812.4V864c0,35.3,86,64,192,64s192-28.7,192-64V812.4c-41.3,34-116.9,51.6-192,51.6S543.3,846.4,502,812.4Zm416,11c57.3-11.1,96-31.7,96-55.4V725.3c-23.2,16.4-57.3,27.6-96,34.5ZM694,672c-106,0-192,35.8-192,80s86,80,192,80,192-35.8,192-80S800,672,694,672Zm219.3,56.3c60-10.8,100.7-32,100.7-56.3V629.3c-35.5,25.1-96.5,38.6-160.7,41.8C882.8,685.4,904.5,704.6,913.3,728.3Z" transform="translate(-84.88 182.81)" style="fill:#231f20"/><text id="buy" transform="translate(270.25 788.42) rotate(-54.38)" style="font-size:314px;fill:#231f20;font-family:Mont-HeavyDEMO, Mont;font-weight:800">B</text><text transform="translate(385.29 621.43) rotate(-25.94)" style="font-size:314px;fill:#231f20;font-family:Mont-HeavyDEMO, Mont;font-weight:800">U</text><text transform="translate(589.35 522.93) rotate(3.49)" style="font-size:314px;fill:#231f20;font-family:Mont-HeavyDEMO, Mont;font-weight:800">Y</text><text transform="translate(804.77 548.35) rotate(22.69)" style="font-size:314px;fill:#231f20;font-family:Mont-HeavyDEMO, Mont;font-weight:800"> </text></svg>