<svg id="Layer_1" data-name="Layer 1" xmlns="http://www.w3.org/2000/svg" viewBox="0 0 1095.14 1372.84"><path d="M512,917.3V960c0,35.3,86,64,192,64s192-28.7,192-64V917.3C854.7,946.4,779.2,960,704,960S553.3,946.4,512,917.3ZM832,640c106,0,192-28.7,192-64s-86-64-192-64-192,28.7-192,64S726,640,832,640ZM512,812.4V864c0,35.3,86,64,192,64s192-28.7,192-64V812.4c-41.3,34-116.9,51.6-192,51.6S553.3,846.4,512,812.4Zm416,11c57.3-11.1,96-31.7,96-55.4V725.3c-23.2,16.4-57.3,27.6-96,34.5ZM704,672c-106,0-192,35.8-192,80s86,80,192,80,192-35.8,192-80S810,672,704,672Zm219.3,56.3c60-10.8,100.7-32,100.7-56.3V629.3c-35.5,25.1-96.5,38.6-160.7,41.8C892.8,685.4,914.5,704.6,923.3,728.3Z" transform="translate(-94.87 182.83)" style="fill:#d88b20"/><text transform="matrix(0.58, -0.81, 0.81, 0.58, 270.25, 788.42)" style="font-size:314px;fill:#d88b20;font-family:Mont-HeavyDEMO, Mont;font-weight:800">B</text><text transform="translate(385.29 621.43) rotate(-25.94)" style="font-size:314px;fill:#d88b20;font-family:Mont-HeavyDEMO, Mont;font-weight:800">U</text><text transform="translate(589.35 522.93) rotate(3.49)" style="font-size:314px;fill:#d88b20;font-family:Mont-HeavyDEMO, Mont;font-weight:800">Y</text><text transform="translate(804.77 548.35) rotate(22.69)" style="font-size:314px;fill:#d88b20;font-family:Mont-HeavyDEMO, Mont;font-weight:800"> </text></svg>