<svg xmlns="http://www.w3.org/2000/svg" data-name="Layer 1" viewBox="0 0 825.16 903.11"><path fill="#756042" d="M512 917.3V960c0 35.3 86 64 192 64s192-28.7 192-64v-42.7C854.7 946.4 779.2 960 704 960s-150.7-13.6-192-42.7zM832 640c106 0 192-28.7 192-64s-86-64-192-64-192 28.7-192 64 86 64 192 64zM512 812.4V864c0 35.3 86 64 192 64s192-28.7 192-64v-51.6c-41.3 34-116.9 51.6-192 51.6s-150.7-17.6-192-51.6zm416 11c57.3-11.1 96-31.7 96-55.4v-42.7c-23.2 16.4-57.3 27.6-96 34.5zM704 672c-106 0-192 35.8-192 80s86 80 192 80 192-35.8 192-80-86-80-192-80zm219.3 56.3c60-10.8 100.7-32 100.7-56.3v-42.7c-35.5 25.1-96.5 38.6-160.7 41.8 29.5 14.3 51.2 33.5 60 57.2zM364.06 407.83c20-11.11 43.6-10.23 63.1 3.74 28.95 20.74 33 61.44 9.35 94.42l-59 82.35-178.67-128 57.81-80.71c22.7-31.68 58.59-40.95 85-22 16 11.44 23.92 30.67 22.42 50.25zm-47.74 2.32c-9.27-6.64-20.1-4.79-27.48 5.5L271 440.53l31.12 22.29L320 437.94c7.37-10.3 5.64-21.15-3.63-27.79zm70.1 45.91c-9.49-6.79-21.16-4.61-28.8 6.05l-19.15 26.74L371 512.13l19.16-26.75c7.59-10.65 5.9-22.38-3.74-29.32zM460 353.89l-58.95-121.2 55.66-27.07 58.45 120.18c9.39 19.32 27.91 25.75 46.1 16.91s24.56-27.38 15.16-46.7L518 175.82l55.66-27.06L632.57 270c23.65 48.64 3.72 98.93-46.67 123.43s-102.25 9.09-125.9-39.54zM829.72 262.87l-5.24 85.81-61.56-3.76 5.25-86-68-138.07 67 4.09 35.33 81.76 45-76.83 67 4.09z" transform="translate(-198.84 -120.89)"/></svg>