<svg id="Layer_1" data-name="Layer 1" xmlns="http://www.w3.org/2000/svg" width="825.16" height="903.11" viewBox="0 0 825.16 903.11"><path d="M512,917.3V960c0,35.3,86,64,192,64s192-28.7,192-64V917.3C854.7,946.4,779.2,960,704,960S553.3,946.4,512,917.3ZM832,640c106,0,192-28.7,192-64s-86-64-192-64-192,28.7-192,64S726,640,832,640ZM512,812.4V864c0,35.3,86,64,192,64s192-28.7,192-64V812.4c-41.3,34-116.9,51.6-192,51.6S553.3,846.4,512,812.4Zm416,11c57.3-11.1,96-31.7,96-55.4V725.3c-23.2,16.4-57.3,27.6-96,34.5ZM704,672c-106,0-192,35.8-192,80s86,80,192,80,192-35.8,192-80S810,672,704,672Zm219.3,56.3c60-10.8,100.7-32,100.7-56.3V629.3c-35.5,25.1-96.5,38.6-160.7,41.8C892.8,685.4,914.5,704.6,923.3,728.3Z" transform="translate(-198.84 -120.89)" style="fill:#d88b17"/><path d="M364.06,407.83c20-11.11,43.6-10.23,63.1,3.74,28.95,20.74,33,61.44,9.35,94.42l-59,82.35-178.67-128,57.81-80.71c22.7-31.68,58.59-40.95,85-22,16,11.44,23.92,30.67,22.42,50.25Zm-47.74,2.32c-9.27-6.64-20.1-4.79-27.48,5.5L271,440.53l31.12,22.29L320,437.94c7.37-10.3,5.64-21.15-3.63-27.79Zm70.1,45.91c-9.49-6.79-21.16-4.61-28.8,6.05l-19.15,26.74L371,512.13l19.16-26.75C397.75,474.73,396.06,463,386.42,456.06Z" transform="translate(-198.84 -120.89)" style="fill:#d88b17"/><path d="M460,353.89l-58.95-121.2,55.66-27.07L515.16,325.8c9.39,19.32,27.91,25.75,46.1,16.91s24.56-27.38,15.16-46.7L518,175.82l55.66-27.06L632.57,270c23.65,48.64,3.72,98.93-46.67,123.43S483.65,402.52,460,353.89Z" transform="translate(-198.84 -120.89)" style="fill:#d88b17"/><path d="M829.72,262.87l-5.24,85.81-61.56-3.76,5.25-86-68-138.07,67,4.09L802.5,206.7l45-76.83,67,4.09Z" transform="translate(-198.84 -120.89)" style="fill:#d88b17"/></svg>