<svg xmlns="http://www.w3.org/2000/svg" viewBox="0 0 905.51 902.13"><defs><style>.a{fill:#756042;}</style></defs><path class="a" d="M593.47,250.75c31.07,56.11,12.12,119.12-45.94,151.27l-77.82,43.1L363.23,252.83l77.82-43.1C499.27,177.49,562.36,194.56,593.47,250.75Zm-54.31,30.07c-15.79-28.52-45.26-37-73.74-21.19L443.3,271.88l52.75,95.26,22.12-12.25C546.65,339.12,554.87,309.19,539.16,280.82Z" transform="translate(-189.49 -123.87)"/><path class="a" d="M879.06,238.93c-1.7,64.11-50,108.79-116.34,107l-88.93-2.36,5.84-219.72,88.92,2.36C835.08,128,880.77,174.72,879.06,238.93Zm-62-1.65c.87-32.6-20.24-54.82-52.78-55.69L739,180.92l-2.9,108.85,25.28.67C793.87,291.31,816.15,269.69,817,237.28Z" transform="translate(-189.49 -123.87)"/><path class="a" d="M382.92,502.87,343.32,570l24.55,28.63-33,55.88L189.49,468.39l30.09-51,234.13,35.74-33.89,57.43ZM263.6,477.81,310,533.17l24.59-41.66Z" transform="translate(-189.49 -123.87)"/><path class="a" d="M590.28,834H883.43l-6.55,32H608.46a24,24,0,0,0-23.4,29.32l5.52,24.28a56,56,0,1,0,63.6,10.4H863.82a56,56,0,1,0,67-8.57L1001.12,578H1071a24,24,0,0,0,24-24V538a24,24,0,0,0-24-24H968.47A24,24,0,0,0,945,533.19L935.79,578H543a24,24,0,0,0-23.4,29.32l47.27,208A24,24,0,0,0,590.28,834Z" transform="translate(-189.49 -123.87)"/></svg>